HIERARCHY
ROOT Hips
{
	OFFSET 0.000000 71.427986 0.000000
	CHANNELS 6 Xposition Yposition Zposition Xrotation Yrotation Zrotation
	JOINT Pelvis
	{
		OFFSET 0.000000 0.000000 0.000000
		CHANNELS 3 Xrotation Yrotation Zrotation
		JOINT LeftUpLeg
		{
			OFFSET 6.797100 -2.508499 -1.318700
			CHANNELS 3 Xrotation Yrotation Zrotation
			JOINT LeftLeg
			{
				OFFSET 0.069008 -29.241863 0.690200
				CHANNELS 3 Xrotation Yrotation Zrotation
				JOINT LeftFoot
				{
					OFFSET -0.069008 -29.568123 -0.266800
					CHANNELS 3 Xrotation Yrotation Zrotation
					JOINT LeftToeBase
					{
						OFFSET 3.145500 -8.631000 16.059900
						CHANNELS 3 Xrotation Yrotation Zrotation
						End Site
						{
							OFFSET 0.000000 18.501587 0.000000
						}
					}
				}
			}
			JOINT Left_ShortSleeve
			{
				OFFSET 0.265923 -10.480953 1.153800
				CHANNELS 3 Xrotation Yrotation Zrotation
				End Site
				{
					OFFSET 1.725763 19.823879 0.000000
				}
			}
		}
		JOINT RightUpLeg
		{
			OFFSET -6.797100 -2.508499 -1.318700
			CHANNELS 3 Xrotation Yrotation Zrotation
			JOINT RightLeg
			{
				OFFSET -0.082453 -29.241932 0.688000
				CHANNELS 3 Xrotation Yrotation Zrotation
				JOINT RightFoot
				{
					OFFSET 0.082453 -29.568058 -0.264600
					CHANNELS 3 Xrotation Yrotation Zrotation
					JOINT RightToeBase
					{
						OFFSET -3.115300 -8.682800 16.113400
						CHANNELS 3 Xrotation Yrotation Zrotation
						End Site
						{
							OFFSET 0.000000 18.567114 0.000000
						}
					}
				}
			}
			JOINT Right_ShortSleeve
			{
				OFFSET -0.265923 -10.480953 1.153800
				CHANNELS 3 Xrotation Yrotation Zrotation
				End Site
				{
					OFFSET -1.725766 19.823910 0.000000
				}
			}
		}
	}
	JOINT Spine
	{
		OFFSET 0.000000 13.368103 0.470500
		CHANNELS 3 Xrotation Yrotation Zrotation
		JOINT Spine1
		{
			OFFSET 0.147000 13.837402 0.538800
			CHANNELS 3 Xrotation Yrotation Zrotation
			JOINT Spine2
			{
				OFFSET 0.168000 16.242897 -1.435500
				CHANNELS 3 Xrotation Yrotation Zrotation
				JOINT Neck
				{
					OFFSET 0.217200 18.631500 -1.679100
					CHANNELS 3 Xrotation Yrotation Zrotation
					JOINT Head
					{
						OFFSET 0.000000 6.599396 1.385900
						CHANNELS 3 Xrotation Yrotation Zrotation
						JOINT Hat
						{
							OFFSET -0.532200 27.220596 -10.096100
							CHANNELS 3 Xrotation Yrotation Zrotation
							End Site
							{
								OFFSET 0.000000 22.029861 0.000000
							}
						}
						JOINT HairD
						{
							OFFSET -10.777400 17.437393 -1.325900
							CHANNELS 3 Xrotation Yrotation Zrotation
							JOINT HairD1
							{
								OFFSET -3.290299 -11.051193 1.062200
								CHANNELS 3 Xrotation Yrotation Zrotation
								End Site
								{
									OFFSET 0.000000 11.579437 0.000000
								}
							}
						}
						JOINT HairB
						{
							OFFSET -10.777400 17.437393 1.467900
							CHANNELS 3 Xrotation Yrotation Zrotation
							JOINT HairB1
							{
								OFFSET -1.561200 -12.956299 3.590200
								CHANNELS 3 Xrotation Yrotation Zrotation
								End Site
								{
									OFFSET 0.000000 13.534866 0.000000
								}
							}
						}
						JOINT HairA
						{
							OFFSET 9.713100 17.437393 1.467900
							CHANNELS 3 Xrotation Yrotation Zrotation
							JOINT HairA1
							{
								OFFSET 1.561200 -12.956299 3.590200
								CHANNELS 3 Xrotation Yrotation Zrotation
								End Site
								{
									OFFSET 0.000000 13.534866 0.000000
								}
							}
						}
						JOINT HairC
						{
							OFFSET 9.713100 17.437393 -1.325900
							CHANNELS 3 Xrotation Yrotation Zrotation
							JOINT HairC1
							{
								OFFSET 3.290300 -11.051193 1.062200
								CHANNELS 3 Xrotation Yrotation Zrotation
								End Site
								{
									OFFSET 0.000000 11.579437 0.000000
								}
							}
						}
					}
				}
				JOINT LeftShoulder
				{
					OFFSET 5.101800 15.108002 -2.763700
					CHANNELS 3 Xrotation Yrotation Zrotation
					JOINT LeftArm
					{
						OFFSET 9.825497 2.506317 -1.597400
						CHANNELS 3 Xrotation Yrotation Zrotation
						JOINT LeftForeArm
						{
							OFFSET 21.966244 0.000000 0.000000
							CHANNELS 3 Xrotation Yrotation Zrotation
							JOINT LeftHand
							{
								OFFSET 33.879036 0.000000 0.000000
								CHANNELS 3 Xrotation Yrotation Zrotation
								JOINT LeftHandThumb1
								{
									OFFSET 6.715286 -2.359680 3.363841
									CHANNELS 3 Xrotation Yrotation Zrotation
									JOINT LeftHandThumb2
									{
										OFFSET 2.507072 -1.447464 1.447461
										CHANNELS 3 Xrotation Yrotation Zrotation
										JOINT LeftHandThumb3
										{
											OFFSET 2.898338 -1.673355 1.673357
											CHANNELS 3 Xrotation Yrotation Zrotation
											End Site
											{
												OFFSET -0.295959 3.727692 -0.131651
											}
										}
									}
								}
								JOINT LeftHandIndex1
								{
									OFFSET 14.190811 -0.254547 3.840278
									CHANNELS 3 Xrotation Yrotation Zrotation
									JOINT LeftHandIndex2
									{
										OFFSET 3.551727 0.000000 -0.000000
										CHANNELS 3 Xrotation Yrotation Zrotation
										JOINT LeftHandIndex3
										{
											OFFSET 2.894196 0.000000 0.000000
											CHANNELS 3 Xrotation Yrotation Zrotation
											End Site
											{
												OFFSET -1.000603 2.690872 0.366626
											}
										}
									}
								}
								JOINT LeftHandMiddle1
								{
									OFFSET 13.776489 0.000000 0.000000
									CHANNELS 3 Xrotation Yrotation Zrotation
									JOINT LeftHandMiddle2
									{
										OFFSET 3.438232 0.000000 0.000000
										CHANNELS 3 Xrotation Yrotation Zrotation
										JOINT LeftHandMiddle3
										{
											OFFSET 3.691551 0.000000 0.000000
											CHANNELS 3 Xrotation Yrotation Zrotation
											End Site
											{
												OFFSET -1.082298 3.499527 0.457670
											}
										}
									}
								}
								JOINT LeftHandRing1
								{
									OFFSET 13.966164 -0.268127 -3.067488
									CHANNELS 3 Xrotation Yrotation Zrotation
									JOINT LeftHandRing2
									{
										OFFSET 3.162567 0.000000 0.000000
										CHANNELS 3 Xrotation Yrotation Zrotation
										JOINT LeftHandRing3
										{
											OFFSET 3.324348 0.000000 0.000000
											CHANNELS 3 Xrotation Yrotation Zrotation
											End Site
											{
												OFFSET -0.861900 3.184998 0.405154
											}
										}
									}
								}
								JOINT LeftHandPinky1
								{
									OFFSET 13.131393 -0.168503 -5.746925
									CHANNELS 3 Xrotation Yrotation Zrotation
									JOINT LeftHandPinky2
									{
										OFFSET 2.849182 0.000000 0.000000
										CHANNELS 3 Xrotation Yrotation Zrotation
										JOINT LeftHandPinky3
										{
											OFFSET 2.805038 0.000000 0.000000
											CHANNELS 3 Xrotation Yrotation Zrotation
											End Site
											{
												OFFSET -0.882500 2.642609 0.325652
											}
										}
									}
								}
							}
							JOINT Left_Sleeve
							{
								OFFSET 6.592125 -0.646545 0.805568
								CHANNELS 3 Xrotation Yrotation Zrotation
								End Site
								{
									OFFSET -0.000179 20.275787 -0.000000
								}
							}
						}
					}
				}
				JOINT RightShoulder
				{
					OFFSET -5.731700 15.108002 -2.763700
					CHANNELS 3 Xrotation Yrotation Zrotation
					JOINT RightArm
					{
						OFFSET -9.825497 2.506317 -1.597400
						CHANNELS 3 Xrotation Yrotation Zrotation
						JOINT RightForeArm
						{
							OFFSET -21.966242 0.000000 0.000000
							CHANNELS 3 Xrotation Yrotation Zrotation
							JOINT RightHand
							{
								OFFSET -33.879032 0.000000 0.000000
								CHANNELS 3 Xrotation Yrotation Zrotation
								JOINT RightHandThumb1
								{
									OFFSET -6.715286 -2.359680 3.363841
									CHANNELS 3 Xrotation Yrotation Zrotation
									JOINT RightHandThumb2
									{
										OFFSET -2.507072 -1.447464 1.447461
										CHANNELS 3 Xrotation Yrotation Zrotation
										JOINT RightHandThumb3
										{
											OFFSET -2.898338 -1.673355 1.673357
											CHANNELS 3 Xrotation Yrotation Zrotation
											End Site
											{
												OFFSET 0.295959 3.727692 -0.131651
											}
										}
									}
								}
								JOINT RightHandIndex1
								{
									OFFSET -14.190811 -0.254547 3.840278
									CHANNELS 3 Xrotation Yrotation Zrotation
									JOINT RightHandIndex2
									{
										OFFSET -3.551727 0.000000 -0.000000
										CHANNELS 3 Xrotation Yrotation Zrotation
										JOINT RightHandIndex3
										{
											OFFSET -2.894196 0.000000 0.000000
											CHANNELS 3 Xrotation Yrotation Zrotation
											End Site
											{
												OFFSET 1.000603 2.690872 0.366626
											}
										}
									}
								}
								JOINT RightHandMiddle1
								{
									OFFSET -13.776489 0.000000 0.000000
									CHANNELS 3 Xrotation Yrotation Zrotation
									JOINT RightHandMiddle2
									{
										OFFSET -3.438232 0.000000 0.000000
										CHANNELS 3 Xrotation Yrotation Zrotation
										JOINT RightHandMiddle3
										{
											OFFSET -3.691551 0.000000 0.000000
											CHANNELS 3 Xrotation Yrotation Zrotation
											End Site
											{
												OFFSET 1.082298 3.499527 0.457670
											}
										}
									}
								}
								JOINT RightHandRing1
								{
									OFFSET -13.966164 -0.268127 -3.067488
									CHANNELS 3 Xrotation Yrotation Zrotation
									JOINT RightHandRing2
									{
										OFFSET -3.162567 0.000000 0.000000
										CHANNELS 3 Xrotation Yrotation Zrotation
										JOINT RightHandRing3
										{
											OFFSET -3.324348 0.000000 0.000000
											CHANNELS 3 Xrotation Yrotation Zrotation
											End Site
											{
												OFFSET 0.861900 3.184998 0.405154
											}
										}
									}
								}
								JOINT RightHandPinky1
								{
									OFFSET -13.131393 -0.168503 -5.746925
									CHANNELS 3 Xrotation Yrotation Zrotation
									JOINT RightHandPinky2
									{
										OFFSET -2.849182 0.000000 0.000000
										CHANNELS 3 Xrotation Yrotation Zrotation
										JOINT RightHandPinky3
										{
											OFFSET -2.805038 0.000000 0.000000
											CHANNELS 3 Xrotation Yrotation Zrotation
											End Site
											{
												OFFSET 0.882500 2.642609 0.325652
											}
										}
									}
								}
							}
							JOINT Right_Sleeve
							{
								OFFSET -6.592125 -0.646545 0.805568
								CHANNELS 3 Xrotation Yrotation Zrotation
								End Site
								{
									OFFSET 0.000179 20.275787 -0.000000
								}
							}
						}
					}
				}
				JOINT Bind_Right_JacketString
				{
					OFFSET -3.534800 11.969597 7.200700
					CHANNELS 3 Xrotation Yrotation Zrotation
					JOINT Bind_Right_JacketString1
					{
						OFFSET -0.319900 -6.102600 2.794100
						CHANNELS 3 Xrotation Yrotation Zrotation
						End Site
						{
							OFFSET 0.000000 6.719452 0.000000
						}
					}
				}
				JOINT Bind_Left_JacketString
				{
					OFFSET 2.904800 11.969597 7.200700
					CHANNELS 3 Xrotation Yrotation Zrotation
					JOINT Bind_Left_JacketString1
					{
						OFFSET 0.364800 -5.904503 3.186800
						CHANNELS 3 Xrotation Yrotation Zrotation
						End Site
						{
							OFFSET 0.000000 6.719513 0.000000
						}
					}
				}
				JOINT HairE
				{
					OFFSET 5.915200 17.612701 -11.592200
					CHANNELS 3 Xrotation Yrotation Zrotation
					JOINT HairE1
					{
						OFFSET 0.289200 -7.171898 -1.284500
						CHANNELS 3 Xrotation Yrotation Zrotation
						End Site
						{
							OFFSET 0.000000 7.291756 0.000000
						}
					}
				}
				JOINT HairF
				{
					OFFSET -0.864800 17.612701 -11.592200
					CHANNELS 3 Xrotation Yrotation Zrotation
					JOINT HairF1
					{
						OFFSET 0.000000 -14.087097 -2.127501
						CHANNELS 3 Xrotation Yrotation Zrotation
						End Site
						{
							OFFSET 0.000000 14.246841 0.000000
						}
					}
				}
				JOINT HairG
				{
					OFFSET -8.087700 17.612701 -11.592200
					CHANNELS 3 Xrotation Yrotation Zrotation
					JOINT HairG1
					{
						OFFSET -0.293600 -6.081398 -0.910100
						CHANNELS 3 Xrotation Yrotation Zrotation
						End Site
						{
							OFFSET 0.000000 6.156120 0.000000
						}
					}
				}
			}
		}
	}
	JOINT Pouch
	{
		OFFSET 0.000000 4.394501 10.847300
		CHANNELS 3 Xrotation Yrotation Zrotation
		End Site
		{
			OFFSET 0.000000 21.880577 0.000000
		}
	}
	JOINT Bag
	{
		OFFSET -13.229000 4.813004 -0.593300
		CHANNELS 3 Xrotation Yrotation Zrotation
		End Site
		{
			OFFSET 0.000000 21.880577 0.000000
		}
	}
	JOINT OccupyGuyFacialAnim_Joint
	{
		OFFSET 1.000000 -70.206398 -1.655000
		CHANNELS 3 Xrotation Yrotation Zrotation
		End Site
		{
			OFFSET 0.000000 21.880577 0.000000
		}
	}
}
MOTION
Frames: 4
Frame Time: 0.033333
-0.341743 67.610771 0.304808 1.663952 -6.349493 1.425915 -0.000000 -0.000000 0.000000 -8.335014 2.357187 2.140581 30.778485 8.746245 6.925297 -23.034028 3.502804 -12.985680 -0.000000 0.000000 0.000000 -0.000000 -0.000000 0.000000 -25.310442 -0.168131 -4.533474 48.277044 -10.164873 9.627810 -18.510779 -29.502749 0.951340 -0.000000 0.000003 -0.000000 0.000001 0.000001 -0.000000 -6.648763 5.037298 -4.257950 10.548338 0.712388 2.081997 10.524354 0.802443 2.163805 -7.988760 -1.841347 0.224322 -2.603237 -8.248089 -2.162445 -0.000000 0.000000 0.000000 -0.000000 0.000000 0.000000 -0.000000 0.000000 0.000000 -0.000000 0.000000 0.000000 0.000000 0.000000 -0.000000 -0.000000 0.000000 0.000000 0.000000 0.000000 -0.000000 -0.000000 0.000000 0.000000 -0.000000 0.000000 0.000000 1.043350 -6.006701 10.338908 -180.099084 -111.222896 -225.584182 -0.000009 -18.094257 0.000003 3.756193 -3.567376 12.231363 0.334131 18.630709 -3.870161 4.584190 15.823470 1.334710 0.000002 -0.000000 -0.000001 0.031886 0.663171 -5.503967 0.212641 1.701259 -14.247842 0.000001 0.000001 -0.000002 0.054657 0.867626 -7.209014 0.367567 2.223685 -18.769496 0.000001 0.000001 -0.000001 0.092544 1.127372 -9.385050 0.616399 2.852335 -24.384400 -0.000000 -0.000001 0.000001 0.897345 5.315437 -10.661224 0.869671 -0.725337 -29.333357 0.000001 -0.000001 0.000003 -0.000000 0.000000 -0.000001 1.177609 11.670237 7.724631 -11.400160 37.963397 51.591468 -0.000004 18.290617 0.000008 4.508557 5.211593 -17.036857 4.285655 -11.440678 -13.543155 5.312004 -16.132161 -0.742125 0.000001 -0.000004 0.000001 0.060311 -0.915783 7.536835 0.063677 -0.940802 7.744005 -0.000002 -0.000003 0.000002 0.072030 -1.000316 8.237225 0.076839 -1.032979 8.508376 0.000001 -0.000001 0.000001 0.088347 -1.107136 9.124428 0.094507 -1.144835 9.438009 0.000001 -0.000003 0.000007 0.102838 -1.193900 9.846404 0.109356 -1.230890 10.154775 -0.000000 -0.000001 -0.000001 -0.000001 -0.000000 0.000000 -0.000002 0.000000 -0.000000 -0.000001 -0.000000 -0.000000 -0.000002 0.000000 -0.000000 -0.000002 0.000000 -0.000000 -0.000002 0.000000 -0.000000 -0.000001 -0.000000 -0.000000 -0.000002 0.000000 -0.000000 -0.000002 0.000000 -0.000000 -0.000002 0.000000 -0.000000 -0.000001 -0.000000 -0.000000 -0.000000 -0.000000 0.000000 -0.000000 -0.000000 0.000000 -0.000000 -0.000000 0.000000 
-0.330682 67.068321 -0.704286 -2.142166 -11.251594 0.763810 -0.000000 -0.000000 0.000000 -6.835592 4.329739 2.512401 35.258553 10.011518 6.263420 -24.676341 5.353183 -13.063908 -0.000000 -0.000000 0.000000 0.000001 0.000000 -0.000000 -25.260662 -8.478703 -5.826821 50.726374 -11.132408 5.100922 -17.643871 -22.608286 2.178462 -0.000000 0.000004 -0.000000 -0.000002 -0.000000 -0.000000 -1.982784 7.816461 -3.166392 12.671040 1.082476 1.746041 12.638478 1.198697 1.897234 -9.862762 -1.755673 0.115334 -8.462240 -8.018987 -2.216138 0.000000 0.000000 -0.000000 0.000000 0.000000 -0.000000 0.000000 0.000000 -0.000000 0.000000 0.000000 -0.000000 0.000000 0.000000 -0.000000 0.000000 0.000000 -0.000000 0.000000 0.000000 -0.000000 0.000000 0.000000 -0.000000 0.000000 0.000000 -0.000000 1.567051 -9.012806 10.960418 -185.757609 -112.138879 -223.303555 -0.000009 -18.280865 -0.000006 5.924541 -2.130851 10.209282 0.366196 18.812948 -3.853149 4.599168 16.015566 1.348151 0.000000 -0.000000 -0.000004 0.059882 0.907885 -7.545679 0.255978 1.863550 -15.640981 -0.000001 0.000000 -0.000002 0.098367 1.162056 -9.676547 0.410847 2.347098 -19.854786 -0.000000 -0.000000 0.000001 0.160972 1.483040 -12.388306 0.651299 2.927972 -25.076321 0.000001 -0.000001 0.000001 1.228215 5.666193 -14.118068 0.891218 -0.687331 -29.695190 -0.000001 0.000000 0.000001 0.000000 0.000000 -0.000003 1.403760 12.903929 5.581291 -15.534265 41.554051 51.734052 0.000004 17.102756 0.000011 -6.730791 8.900837 -18.175203 4.247788 -11.721133 -13.594448 5.308278 -16.089284 -0.739385 0.000001 -0.000001 0.000001 0.063859 -0.942146 7.755294 0.073700 -1.011756 8.332273 -0.000001 -0.000001 0.000002 0.072348 -1.002480 8.255392 0.089494 -1.114284 9.183944 0.000002 -0.000001 0.000006 0.083920 -1.079230 8.892537 0.110834 -1.239001 10.222473 0.000000 -0.000001 0.000001 0.094022 -1.141951 9.413896 0.128950 -1.335578 11.029209 -0.000001 -0.000002 0.000004 -0.000004 -0.000001 -0.000001 -0.000000 0.000000 -0.000000 -0.000000 0.000000 -0.000000 -0.000000 0.000000 -0.000000 -0.000000 0.000000 -0.000000 -0.000000 0.000000 -0.000000 -0.000000 0.000000 -0.000000 -0.000000 0.000000 -0.000000 -0.000000 0.000000 -0.000000 -0.000000 0.000000 -0.000000 -0.000000 0.000000 -0.000000 -0.000000 -0.000000 0.000000 -0.000000 -0.000000 0.000000 -0.000000 -0.000000 0.000000 
-0.394235 66.504608 -1.584100 -5.763447 -15.375806 -0.686616 -0.000000 -0.000001 -0.000000 -5.383016 6.498799 3.138321 39.133863 10.194181 6.528756 -26.071763 7.760412 -13.354879 0.000000 0.000000 -0.000000 -0.000001 -0.000001 -0.000000 -26.479525 -17.100564 -7.295296 54.354960 -11.777669 -0.117898 -16.580738 -11.838423 3.144016 -0.000000 0.000002 0.000000 -0.000002 0.000001 0.000000 2.888426 8.660107 -1.415471 14.161972 1.189861 1.021096 14.133776 1.295861 1.210893 -11.037930 -1.366579 0.016026 -14.337916 -6.279124 -2.355104 0.000000 -0.000001 -0.000000 0.000000 -0.000001 -0.000000 0.000000 -0.000001 -0.000000 0.000000 -0.000001 -0.000000 -0.000000 -0.000001 -0.000000 0.000000 -0.000001 -0.000000 -0.000000 -0.000001 -0.000000 0.000000 -0.000001 -0.000000 0.000000 -0.000001 -0.000000 2.121435 -11.088759 13.072062 -187.417345 -114.462243 -219.759451 -0.000005 -19.966089 -0.000002 8.802169 0.260075 7.696550 0.428378 19.167008 -3.820378 4.628160 16.388685 1.374182 -0.000001 0.000001 0.000000 0.100309 1.173419 -9.772013 0.293490 1.992572 -16.755718 0.000002 0.000001 -0.000002 0.161558 1.485759 -12.411086 0.457627 2.472710 -20.967301 0.000002 0.000000 -0.000001 0.259928 1.877583 -15.762067 0.708670 3.047393 -26.176727 -0.000000 0.000000 0.000001 1.627728 6.038319 -18.034826 0.956403 -0.575486 -30.767120 -0.000001 -0.000000 -0.000001 0.000000 -0.000000 0.000001 1.679921 13.156898 2.235625 -20.030677 47.390431 54.548182 -0.000023 15.666811 0.000012 -21.091703 11.693272 -17.840732 4.194095 -12.115004 -13.666890 5.311226 -16.123338 -0.741563 -0.000002 -0.000001 -0.000001 0.038602 -0.733135 6.027374 0.086899 -1.098154 9.049750 -0.000003 -0.000001 0.000000 0.049734 -0.831908 6.843033 0.101391 -1.185450 9.776156 0.000001 -0.000003 0.000000 0.065793 -0.956228 7.871929 0.120674 -1.292351 10.667961 0.000002 -0.000003 0.000001 0.080442 -1.056755 8.705883 0.136782 -1.375162 11.360497 0.000001 -0.000004 0.000003 0.000000 0.000003 -0.000002 0.000003 0.000000 -0.000000 0.000003 0.000000 -0.000000 0.000003 0.000000 -0.000000 0.000003 0.000000 -0.000000 0.000003 0.000000 -0.000000 0.000003 0.000000 -0.000000 0.000003 0.000000 -0.000000 0.000003 0.000000 -0.000000 0.000003 0.000000 -0.000000 0.000003 0.000000 -0.000000 -0.000000 -0.000001 -0.000000 -0.000000 -0.000001 -0.000000 -0.000000 -0.000001 -0.000000 
-0.588004 65.776184 -2.084415 -8.227938 -18.612329 -2.024610 0.000000 -0.000000 0.000000 -4.909403 9.476575 3.801371 42.646701 9.914307 7.952149 -27.635634 9.485780 -14.264274 -0.000000 -0.000000 -0.000000 0.000001 0.000000 0.000000 -29.159635 -22.230997 -9.798476 59.390257 -11.261027 -3.659239 -16.409982 -3.201408 4.399532 0.000000 0.000001 0.000000 -0.000002 0.000001 -0.000000 5.905767 7.410380 -0.213144 15.156116 1.035399 0.521896 15.139403 1.109065 0.701546 -11.417126 -0.603654 -0.353336 -18.528620 -3.066959 -2.432905 -0.000000 0.000000 0.000000 -0.000000 0.000000 0.000000 -0.000000 0.000000 0.000000 -0.000000 0.000000 0.000000 0.000000 0.000000 0.000000 -0.000000 0.000000 0.000000 0.000000 0.000000 0.000000 -0.000000 0.000000 0.000000 -0.000000 0.000000 0.000000 2.472019 -11.923631 14.964750 -186.093094 -118.987619 -216.613289 -0.000011 -22.320753 -0.000001 12.734359 2.782799 4.849065 0.500034 19.575409 -3.782993 4.661451 16.819129 1.404005 -0.000001 -0.000000 -0.000004 0.162163 1.488521 -12.434563 0.330064 2.110206 -17.777669 0.000003 -0.000001 -0.000002 0.245932 1.827324 -15.329103 0.512975 2.612402 -22.214852 0.000001 -0.000000 -0.000001 0.376725 2.250432 -19.004018 0.791540 3.210250 -27.695133 -0.000002 0.000001 -0.000001 2.008950 6.349498 -21.566906 1.065018 -0.399061 -32.483143 0.000000 -0.000000 0.000001 0.000001 -0.000000 -0.000001 1.853459 13.016599 -0.807332 -24.908505 53.114068 59.169034 -0.000002 15.061496 0.000009 -34.722513 12.178570 -17.374826 4.165260 -12.324725 -13.705702 5.323570 -16.265436 -0.750636 -0.000001 0.000000 -0.000004 0.009832 -0.370290 3.039905 0.089008 -1.111278 9.159006 0.000002 0.000003 0.000002 0.024149 -0.580210 4.766631 0.101392 -1.185530 9.776923 -0.000000 -0.000003 0.000004 0.051012 -0.842412 6.929922 0.117972 -1.278024 10.548195 -0.000001 -0.000006 -0.000000 0.079820 -1.052621 8.671470 0.131638 -1.349314 11.144214 -0.000004 0.000002 0.000001 -0.000002 0.000000 -0.000000 0.000003 -0.000000 0.000000 0.000003 -0.000000 0.000001 0.000003 -0.000000 -0.000000 0.000003 -0.000000 -0.000000 0.000003 -0.000000 0.000000 0.000003 -0.000000 0.000000 0.000003 -0.000000 -0.000000 0.000003 -0.000000 -0.000000 0.000003 -0.000000 0.000000 0.000003 -0.000000 0.000000 0.000000 -0.000000 0.000000 0.000000 -0.000000 0.000000 0.000000 -0.000000 0.000000 
